<!DOCTYPE svg PUBLIC "-//W3C//DTD SVG 1.1//EN" "http://www.w3.org/Graphics/SVG/1.1/DTD/svg11.dtd">
<!-- Uploaded to: SVG Repo, www.svgrepo.com, Transformed by: SVG Repo Mixer Tools -->
<svg fill="#ffffff" height="800px" width="800px" version="1.1" id="Layer_1" xmlns="http://www.w3.org/2000/svg" xmlns:xlink="http://www.w3.org/1999/xlink" viewBox="0 0 512 512" xml:space="preserve">
<g id="SVGRepo_bgCarrier" stroke-width="0"/>
<g id="SVGRepo_tracerCarrier" stroke-linecap="round" stroke-linejoin="round"/>
<g id="SVGRepo_iconCarrier"> <g> <g> <path d="M480,0c-11.776,0-21.333,9.557-21.333,21.333v210.325L42.283,2.645c-6.613-3.627-14.656-3.52-21.141,0.32 c-6.485,3.84-10.475,10.816-10.475,18.368v469.333c0,7.552,3.989,14.528,10.475,18.368C24.491,511.019,28.245,512,32,512 c3.541,0,7.083-0.875,10.283-2.645l416.384-229.013v210.325c0,11.776,9.557,21.333,21.333,21.333s21.333-9.557,21.333-21.333 V21.333C501.333,9.557,491.776,0,480,0z"/> </g> </g> </g>
</svg>