<!DOCTYPE svg PUBLIC "-//W3C//DTD SVG 1.1//EN" "http://www.w3.org/Graphics/SVG/1.1/DTD/svg11.dtd">
<!-- Uploaded to: SVG Repo, www.svgrepo.com, Transformed by: SVG Repo Mixer Tools -->
<svg fill="#ffffff" width="800px" height="800px" viewBox="0 0 256 256" id="Flat" xmlns="http://www.w3.org/2000/svg">
<g id="SVGRepo_bgCarrier" stroke-width="0"/>
<g id="SVGRepo_tracerCarrier" stroke-linecap="round" stroke-linejoin="round"/>
<g id="SVGRepo_iconCarrier"> <path d="M148,192a12.00028,12.00028,0,0,1-12,12H40a12,12,0,0,1,0-24h96A12.00028,12.00028,0,0,1,148,192Zm104-32a12.00081,12.00081,0,0,1-5.63965,10.17578l-64,40A12,12,0,0,1,164,200V120a12,12,0,0,1,18.36035-10.17578l64,40A12.00081,12.00081,0,0,1,252,160Zm-34.6416,0L188,141.65088v36.69824ZM40,76H216a12,12,0,0,0,0-24H40a12,12,0,0,0,0,24Zm96,40H40a12,12,0,0,0,0,24h96a12,12,0,0,0,0-24Z"/> </g>
</svg>